<mxfile host="app.diagrams.net" modified="2021-07-24T03:53:32.423Z" agent="5.0 (Windows NT 10.0; Win64; x64) AppleWebKit/537.36 (KHTML, like Gecko) Chrome/91.0.4472.164 Safari/537.36" etag="WJLoem-yak75kNeQM-sc" version="14.9.1" type="github">
  <diagram id="C5RBs43oDa-KdzZeNtuy" name="Ingress">
    <mxGraphModel dx="1231" dy="912" grid="1" gridSize="10" guides="1" tooltips="1" connect="1" arrows="1" fold="1" page="1" pageScale="1" pageWidth="827" pageHeight="1169" math="0" shadow="0">
      <root>
        <mxCell id="WIyWlLk6GJQsqaUBKTNV-0" />
        <mxCell id="WIyWlLk6GJQsqaUBKTNV-1" parent="WIyWlLk6GJQsqaUBKTNV-0" />
        <mxCell id="ZkIhljT0trmnIVyy5ez4-10" value="" style="rounded=0;whiteSpace=wrap;html=1;dashed=1;" vertex="1" parent="WIyWlLk6GJQsqaUBKTNV-1">
          <mxGeometry x="510" y="220" width="290" height="50" as="geometry" />
        </mxCell>
        <mxCell id="ZkIhljT0trmnIVyy5ez4-0" value="Client" style="rounded=0;whiteSpace=wrap;html=1;" vertex="1" parent="WIyWlLk6GJQsqaUBKTNV-1">
          <mxGeometry x="103" y="345" width="70" height="30" as="geometry" />
        </mxCell>
        <mxCell id="ZkIhljT0trmnIVyy5ez4-1" value="Ingress" style="rounded=0;whiteSpace=wrap;html=1;" vertex="1" parent="WIyWlLk6GJQsqaUBKTNV-1">
          <mxGeometry x="206" y="345" width="70" height="30" as="geometry" />
        </mxCell>
        <mxCell id="ZkIhljT0trmnIVyy5ez4-3" value="Service" style="rounded=0;whiteSpace=wrap;html=1;" vertex="1" parent="WIyWlLk6GJQsqaUBKTNV-1">
          <mxGeometry x="414" y="230" width="76" height="30" as="geometry" />
        </mxCell>
        <mxCell id="ZkIhljT0trmnIVyy5ez4-4" value="Service" style="rounded=0;whiteSpace=wrap;html=1;" vertex="1" parent="WIyWlLk6GJQsqaUBKTNV-1">
          <mxGeometry x="414" y="290" width="76" height="30" as="geometry" />
        </mxCell>
        <mxCell id="ZkIhljT0trmnIVyy5ez4-5" value="Service" style="rounded=0;whiteSpace=wrap;html=1;" vertex="1" parent="WIyWlLk6GJQsqaUBKTNV-1">
          <mxGeometry x="414" y="350" width="76" height="30" as="geometry" />
        </mxCell>
        <mxCell id="ZkIhljT0trmnIVyy5ez4-6" value="Service" style="rounded=0;whiteSpace=wrap;html=1;" vertex="1" parent="WIyWlLk6GJQsqaUBKTNV-1">
          <mxGeometry x="414" y="410" width="76" height="30" as="geometry" />
        </mxCell>
        <mxCell id="ZkIhljT0trmnIVyy5ez4-7" value="Pod" style="rounded=1;whiteSpace=wrap;html=1;" vertex="1" parent="WIyWlLk6GJQsqaUBKTNV-1">
          <mxGeometry x="530" y="230" width="80" height="30" as="geometry" />
        </mxCell>
        <mxCell id="ZkIhljT0trmnIVyy5ez4-8" value="Pod" style="rounded=1;whiteSpace=wrap;html=1;" vertex="1" parent="WIyWlLk6GJQsqaUBKTNV-1">
          <mxGeometry x="620" y="230" width="80" height="30" as="geometry" />
        </mxCell>
        <mxCell id="ZkIhljT0trmnIVyy5ez4-9" value="Pod" style="rounded=1;whiteSpace=wrap;html=1;" vertex="1" parent="WIyWlLk6GJQsqaUBKTNV-1">
          <mxGeometry x="710" y="230" width="80" height="30" as="geometry" />
        </mxCell>
        <mxCell id="ZkIhljT0trmnIVyy5ez4-11" value="" style="rounded=0;whiteSpace=wrap;html=1;dashed=1;" vertex="1" parent="WIyWlLk6GJQsqaUBKTNV-1">
          <mxGeometry x="510" y="280" width="290" height="50" as="geometry" />
        </mxCell>
        <mxCell id="ZkIhljT0trmnIVyy5ez4-12" value="Pod" style="rounded=1;whiteSpace=wrap;html=1;" vertex="1" parent="WIyWlLk6GJQsqaUBKTNV-1">
          <mxGeometry x="530" y="290" width="80" height="30" as="geometry" />
        </mxCell>
        <mxCell id="ZkIhljT0trmnIVyy5ez4-13" value="Pod" style="rounded=1;whiteSpace=wrap;html=1;" vertex="1" parent="WIyWlLk6GJQsqaUBKTNV-1">
          <mxGeometry x="620" y="290" width="80" height="30" as="geometry" />
        </mxCell>
        <mxCell id="ZkIhljT0trmnIVyy5ez4-14" value="Pod" style="rounded=1;whiteSpace=wrap;html=1;" vertex="1" parent="WIyWlLk6GJQsqaUBKTNV-1">
          <mxGeometry x="710" y="290" width="80" height="30" as="geometry" />
        </mxCell>
        <mxCell id="ZkIhljT0trmnIVyy5ez4-15" value="" style="rounded=0;whiteSpace=wrap;html=1;dashed=1;" vertex="1" parent="WIyWlLk6GJQsqaUBKTNV-1">
          <mxGeometry x="510" y="340" width="290" height="50" as="geometry" />
        </mxCell>
        <mxCell id="ZkIhljT0trmnIVyy5ez4-16" value="Pod" style="rounded=1;whiteSpace=wrap;html=1;" vertex="1" parent="WIyWlLk6GJQsqaUBKTNV-1">
          <mxGeometry x="530" y="350" width="80" height="30" as="geometry" />
        </mxCell>
        <mxCell id="ZkIhljT0trmnIVyy5ez4-17" value="Pod" style="rounded=1;whiteSpace=wrap;html=1;" vertex="1" parent="WIyWlLk6GJQsqaUBKTNV-1">
          <mxGeometry x="620" y="350" width="80" height="30" as="geometry" />
        </mxCell>
        <mxCell id="ZkIhljT0trmnIVyy5ez4-18" value="Pod" style="rounded=1;whiteSpace=wrap;html=1;" vertex="1" parent="WIyWlLk6GJQsqaUBKTNV-1">
          <mxGeometry x="710" y="350" width="80" height="30" as="geometry" />
        </mxCell>
        <mxCell id="ZkIhljT0trmnIVyy5ez4-19" value="" style="rounded=0;whiteSpace=wrap;html=1;dashed=1;" vertex="1" parent="WIyWlLk6GJQsqaUBKTNV-1">
          <mxGeometry x="510" y="400" width="290" height="50" as="geometry" />
        </mxCell>
        <mxCell id="ZkIhljT0trmnIVyy5ez4-20" value="Pod" style="rounded=1;whiteSpace=wrap;html=1;" vertex="1" parent="WIyWlLk6GJQsqaUBKTNV-1">
          <mxGeometry x="530" y="410" width="80" height="30" as="geometry" />
        </mxCell>
        <mxCell id="ZkIhljT0trmnIVyy5ez4-21" value="Pod" style="rounded=1;whiteSpace=wrap;html=1;" vertex="1" parent="WIyWlLk6GJQsqaUBKTNV-1">
          <mxGeometry x="620" y="410" width="80" height="30" as="geometry" />
        </mxCell>
        <mxCell id="ZkIhljT0trmnIVyy5ez4-22" value="Pod" style="rounded=1;whiteSpace=wrap;html=1;" vertex="1" parent="WIyWlLk6GJQsqaUBKTNV-1">
          <mxGeometry x="710" y="410" width="80" height="30" as="geometry" />
        </mxCell>
        <mxCell id="ZkIhljT0trmnIVyy5ez4-23" value="" style="endArrow=classic;html=1;exitX=1;exitY=0.5;exitDx=0;exitDy=0;entryX=0;entryY=0.5;entryDx=0;entryDy=0;" edge="1" parent="WIyWlLk6GJQsqaUBKTNV-1" source="ZkIhljT0trmnIVyy5ez4-3" target="ZkIhljT0trmnIVyy5ez4-10">
          <mxGeometry width="50" height="50" relative="1" as="geometry">
            <mxPoint x="390" y="490" as="sourcePoint" />
            <mxPoint x="440" y="440" as="targetPoint" />
          </mxGeometry>
        </mxCell>
        <mxCell id="ZkIhljT0trmnIVyy5ez4-24" value="" style="endArrow=classic;html=1;exitX=1;exitY=0.5;exitDx=0;exitDy=0;entryX=0;entryY=0.5;entryDx=0;entryDy=0;" edge="1" parent="WIyWlLk6GJQsqaUBKTNV-1" source="ZkIhljT0trmnIVyy5ez4-4" target="ZkIhljT0trmnIVyy5ez4-11">
          <mxGeometry width="50" height="50" relative="1" as="geometry">
            <mxPoint x="390" y="490" as="sourcePoint" />
            <mxPoint x="440" y="440" as="targetPoint" />
          </mxGeometry>
        </mxCell>
        <mxCell id="ZkIhljT0trmnIVyy5ez4-25" value="" style="endArrow=classic;html=1;exitX=1;exitY=0.5;exitDx=0;exitDy=0;entryX=0;entryY=0.5;entryDx=0;entryDy=0;" edge="1" parent="WIyWlLk6GJQsqaUBKTNV-1" source="ZkIhljT0trmnIVyy5ez4-5" target="ZkIhljT0trmnIVyy5ez4-15">
          <mxGeometry width="50" height="50" relative="1" as="geometry">
            <mxPoint x="390" y="490" as="sourcePoint" />
            <mxPoint x="440" y="440" as="targetPoint" />
          </mxGeometry>
        </mxCell>
        <mxCell id="ZkIhljT0trmnIVyy5ez4-26" value="" style="endArrow=classic;html=1;exitX=1;exitY=0.5;exitDx=0;exitDy=0;entryX=0;entryY=0.5;entryDx=0;entryDy=0;" edge="1" parent="WIyWlLk6GJQsqaUBKTNV-1" source="ZkIhljT0trmnIVyy5ez4-6" target="ZkIhljT0trmnIVyy5ez4-19">
          <mxGeometry width="50" height="50" relative="1" as="geometry">
            <mxPoint x="390" y="490" as="sourcePoint" />
            <mxPoint x="440" y="440" as="targetPoint" />
          </mxGeometry>
        </mxCell>
        <mxCell id="ZkIhljT0trmnIVyy5ez4-27" value="" style="endArrow=classic;html=1;exitX=1;exitY=0.5;exitDx=0;exitDy=0;entryX=0;entryY=0.5;entryDx=0;entryDy=0;" edge="1" parent="WIyWlLk6GJQsqaUBKTNV-1" source="ZkIhljT0trmnIVyy5ez4-1" target="ZkIhljT0trmnIVyy5ez4-3">
          <mxGeometry width="50" height="50" relative="1" as="geometry">
            <mxPoint x="390" y="490" as="sourcePoint" />
            <mxPoint x="440" y="440" as="targetPoint" />
            <Array as="points">
              <mxPoint x="320" y="360" />
              <mxPoint x="320" y="320" />
              <mxPoint x="320" y="245" />
            </Array>
          </mxGeometry>
        </mxCell>
        <mxCell id="ZkIhljT0trmnIVyy5ez4-28" value="" style="endArrow=classic;html=1;exitX=1;exitY=0.5;exitDx=0;exitDy=0;entryX=0;entryY=0.5;entryDx=0;entryDy=0;" edge="1" parent="WIyWlLk6GJQsqaUBKTNV-1" source="ZkIhljT0trmnIVyy5ez4-1" target="ZkIhljT0trmnIVyy5ez4-4">
          <mxGeometry width="50" height="50" relative="1" as="geometry">
            <mxPoint x="390" y="490" as="sourcePoint" />
            <mxPoint x="420" y="310" as="targetPoint" />
            <Array as="points">
              <mxPoint x="320" y="360" />
              <mxPoint x="320" y="350" />
              <mxPoint x="320" y="305" />
            </Array>
          </mxGeometry>
        </mxCell>
        <mxCell id="ZkIhljT0trmnIVyy5ez4-29" value="" style="endArrow=classic;html=1;exitX=1;exitY=0.5;exitDx=0;exitDy=0;entryX=0;entryY=0.5;entryDx=0;entryDy=0;" edge="1" parent="WIyWlLk6GJQsqaUBKTNV-1" source="ZkIhljT0trmnIVyy5ez4-1" target="ZkIhljT0trmnIVyy5ez4-5">
          <mxGeometry width="50" height="50" relative="1" as="geometry">
            <mxPoint x="390" y="490" as="sourcePoint" />
            <mxPoint x="440" y="440" as="targetPoint" />
            <Array as="points">
              <mxPoint x="330" y="360" />
            </Array>
          </mxGeometry>
        </mxCell>
        <mxCell id="ZkIhljT0trmnIVyy5ez4-30" value="" style="endArrow=classic;html=1;exitX=1;exitY=0.5;exitDx=0;exitDy=0;entryX=0;entryY=0.5;entryDx=0;entryDy=0;" edge="1" parent="WIyWlLk6GJQsqaUBKTNV-1" source="ZkIhljT0trmnIVyy5ez4-1" target="ZkIhljT0trmnIVyy5ez4-6">
          <mxGeometry width="50" height="50" relative="1" as="geometry">
            <mxPoint x="390" y="490" as="sourcePoint" />
            <mxPoint x="410" y="430" as="targetPoint" />
            <Array as="points">
              <mxPoint x="320" y="360" />
              <mxPoint x="320" y="425" />
            </Array>
          </mxGeometry>
        </mxCell>
        <mxCell id="ZkIhljT0trmnIVyy5ez4-31" value="kubia.example.com/kubia" style="text;html=1;strokeColor=none;fillColor=none;align=center;verticalAlign=middle;whiteSpace=wrap;rounded=0;dashed=1;" vertex="1" parent="WIyWlLk6GJQsqaUBKTNV-1">
          <mxGeometry x="380" y="210" width="100" height="20" as="geometry" />
        </mxCell>
        <mxCell id="ZkIhljT0trmnIVyy5ez4-32" value="kubia.example.com/foo" style="text;html=1;strokeColor=none;fillColor=none;align=center;verticalAlign=middle;whiteSpace=wrap;rounded=0;dashed=1;" vertex="1" parent="WIyWlLk6GJQsqaUBKTNV-1">
          <mxGeometry x="380" y="270" width="100" height="20" as="geometry" />
        </mxCell>
        <mxCell id="ZkIhljT0trmnIVyy5ez4-33" value="foo.example.com" style="text;html=1;strokeColor=none;fillColor=none;align=center;verticalAlign=middle;whiteSpace=wrap;rounded=0;dashed=1;" vertex="1" parent="WIyWlLk6GJQsqaUBKTNV-1">
          <mxGeometry x="390" y="330" width="100" height="20" as="geometry" />
        </mxCell>
        <mxCell id="ZkIhljT0trmnIVyy5ez4-35" value="bar.example.com" style="text;html=1;strokeColor=none;fillColor=none;align=center;verticalAlign=middle;whiteSpace=wrap;rounded=0;dashed=1;" vertex="1" parent="WIyWlLk6GJQsqaUBKTNV-1">
          <mxGeometry x="390" y="390" width="100" height="20" as="geometry" />
        </mxCell>
        <mxCell id="ZkIhljT0trmnIVyy5ez4-37" value="" style="endArrow=classic;html=1;exitX=1;exitY=0.5;exitDx=0;exitDy=0;entryX=0;entryY=0.5;entryDx=0;entryDy=0;" edge="1" parent="WIyWlLk6GJQsqaUBKTNV-1" source="ZkIhljT0trmnIVyy5ez4-0" target="ZkIhljT0trmnIVyy5ez4-1">
          <mxGeometry width="50" height="50" relative="1" as="geometry">
            <mxPoint x="340" y="490" as="sourcePoint" />
            <mxPoint x="390" y="440" as="targetPoint" />
          </mxGeometry>
        </mxCell>
      </root>
    </mxGraphModel>
  </diagram>
</mxfile>
